<svg width="331" height="61" fill="none" xmlns="http://www.w3.org/2000/svg"><path d="M129.67 47.118v13.724h2.161V47.118h-2.161zm37.724 0v13.724h11.085V58.84h-8.924v-4.294h7.771v-1.843h-7.771v-3.714h8.633v-1.857h-10.794v-.014zm-91.427 0v13.724h2.162V47.118h-2.162zm35.709 13.737h10.078v-1.857h-7.917V47.132h-2.161v13.723zm-16.561-6.006c-1.578 0-3.17-.434-4.177-1v-5.15h5.622c2.731 0 3.739 1.435 3.739 2.713 0 1.857-1.445 3.437-5.184 3.437zm-33.402.567h-6.338l3.169-6.44 3.169 6.44zm82.795 5.439v-11.3l9.507 10.72c.292.435.716.567 1.299.567h1.3V47.118h-2.016v10.866l-9.374-10.286c-.292-.435-.571-.566-1.3-.566h-1.445v13.723h2.029zm-53.57 0V55.85c1.007.566 2.453.856 4.03.856.863 0 1.446 0 2.162-.145l2.877 4.294h2.308l-3.17-4.86c2.016-.856 3.315-2.568 3.315-4.57 0-2.568-2.161-4.438-6.046-4.438h-7.638v13.868h2.162zm-26.626 0h2.148l-6.47-13.157c-.293-.435-.571-.566-1.009-.566h-1.578l-6.762 13.723h2.161l1.724-3.57h8.062l1.724 3.57zm130.013-14.013c-3.739 0-6.193 1.58-6.193 4.004 0 2.291 1.87 3.147 4.893 3.714l1.446.29c2.161.434 3.315 1.145 3.315 2.29 0 1.147-1.154 2.003-4.031 2.003-2.586 0-4.615-.856-5.185-1.291l-.57 2.002c.57.29 2.586 1.145 5.609 1.145 4.031 0 6.338-1.567 6.338-4.003 0-2.292-2.016-3.437-5.185-4.004l-1.445-.29c-2.307-.434-3.023-.855-3.023-2.001s1.299-2.002 3.885-2.002c2.161 0 3.739.434 4.469.711l.437-1.712c-.875-.29-2.466-.856-4.76-.856zM114.156 32.13h6.073V15.327l10.608-.698v-4.333h-27.289v4.333l10.608.698v16.805zm-43.824 0 2.493-5.03H58.08V10.295h-6.312v21.836h18.564zm23.47-8.441H85.62l4.137-8.745 4.044 8.745zm54.896 0h-8.195l4.137-8.745 4.058 8.745zm27.753 3.108c.238.777 1.166 1.317 2.187 1.317h6.312l4.681-12.854 4.442 16.884H200l-4.906-19.36c-.464-1.936-1.565-2.476-3.355-2.476h-6.166l-4.442 12.775-3.514-10.852c-.464-1.383-1.326-1.936-2.731-1.936h-6.935l-5.689 21.836h6.007l4.363-16.884 3.819 11.55zm-23.616 5.334h6.63l-10.449-20.453c-.544-1-1.087-1.396-2.334-1.396h-5.768l-10.992 21.836h6.709l1.949-4.03h12.319l1.936 4.043zm-54.976 0h6.71L94.12 11.678c-.544-1-1.087-1.396-2.347-1.396h-5.768L75.013 32.118h6.696l1.949-4.03h12.318l1.883 4.043zM8.977 54.31l5.383-1.95c1.128-.408 1.128.488 1.128 1.831v2.463c0 1.989-.677 2.226-1.565 2.555L8.977 61v-6.69zM8.977 43.405l13.67-4.939c1.128-.408 1.128.487 1.128 1.83v2.45c0 2.002-.676 2.24-1.565 2.569l-13.233 4.78v-6.69zM7.85 27.85.902 25.336C0 25.005 0 23.795 0 23.36c0 0 0 1.462 1.34.974l34.077-12.313c2.692-.975 2.692-1.726 1.565-2.134 1.127.408 1.127.408 1.127 3.674 0 3.122 0 4.162-1.34 4.65l-26.678 9.64c-1.114.408-1.114.408-2.241 0zM36.995 20.805c1.127.408 1.127 1.159-1.565 2.134l-26.453 9.56v6.678l27.806-10.049c1.34-.487 1.34-1.527 1.34-4.649 0-3.279 0-3.279-1.128-3.674z" fill="#fff"/><path d="m2.917 15.156 11.908 4.306 9.242-3.345L1.803 8.07C.24 7.504.013 7.425.013 8.531v2.897C0 14.102 2.03 14.84 2.917 15.156zM36.995 20.805l-3.686-1.343-9.242 3.345 5.848 2.12 5.516-1.988c2.691-.988 2.691-1.739 1.564-2.134zM36.995 9.887 10.767.405C9.202-.16 8.977-.24 8.977.866v2.897c0 2.674 2.015 3.398 2.917 3.727l18.034 6.52 5.516-1.99c2.678-.974 2.678-1.724 1.551-2.133zM1.352 24.335l7.625-2.752-7.174-2.595c-1.564-.566-1.79-.645-1.79.461v3.912c-.013 0-.013 1.461 1.34.974z" fill="#ED1650"/><path opacity=".4" d="M217.906.953a.953.953 0 0 0-1.906 0v59.094a.953.953 0 1 0 1.906 0V.953z" fill="#fff"/><path d="M286.811 0c-.877 0-1.62.743-1.62 1.62 0 .878.743 1.62 1.62 1.62.878 0 1.621-.742 1.621-1.62 0-.877-.743-1.62-1.621-1.62zM324.294 13.994c-1.664 0-2.87-1.242-2.87-2.953 0-1.71 1.206-2.953 2.87-2.953 1.664 0 2.87 1.242 2.87 2.953 0 1.71-1.206 2.953-2.87 2.953zm0-9.135c-3.468 0-6.188 2.717-6.188 6.182 0 3.468 2.717 6.183 6.188 6.183 3.471 0 6.188-2.715 6.188-6.183 0-3.465-2.72-6.182-6.188-6.182zM288.434 5.267h-3.243v11.956h3.243V5.267zM254.555 8.033c1.774 0 2.966 1.22 2.966 3.035 0 1.815-1.192 3.035-2.966 3.035-1.774 0-2.964-1.22-2.964-3.035 0-1.815 1.19-3.035 2.964-3.035zm-6.281 2.907c0 1.672.586 3.355 1.645 4.512 1.047 1.14 2.465 1.771 3.948 1.771 1.48 0 2.615-.474 3.427-1.406l.326-.381v1.787h3.216V5.267h-3.243v1.417l-.302-.364c-.811-.935-2.07-1.459-3.55-1.459-1.483 0-2.78.68-3.825 1.82-1.056 1.158-1.642 2.586-1.642 4.259zM268.755 7.937c1.059 0 2.229.545 2.229 2.229v7.093h3.244V9.76c0-2.374-1.489-4.864-4.458-4.864-1.44 0-2.517.557-3.161 1.442l-.283.384V5.275h-3.243V17.26h3.243v-6.796c-.003-1.629.949-2.528 2.429-2.528zM278.354 16.332c.642.579 1.651.891 3.088.891.499 0 1.107-.071 1.648-.18l.011-2.858c-1.061.058-1.752-.076-2.199-.35-.302-.187-.45-.516-.45-.87v-4.88h2.649v-2.81h-2.649V2.229h-3.227v3.046h-2.026v2.813h2.026l-.022 4.935c0 1.61.439 2.665 1.151 3.31zM295.982 8.033c1.774 0 2.967 1.22 2.967 3.035 0 1.815-1.193 3.035-2.967 3.035s-2.966-1.22-2.966-3.035c0-1.815 1.192-3.035 2.966-3.035zm-6.284 2.91c0 1.672.587 3.355 1.645 4.512 1.048 1.14 2.465 1.771 3.949 1.771 1.48 0 2.615-.474 3.426-1.406l.327-.381v1.787h3.216V5.266h-3.244v1.418l-.301-.364c-.812-.935-2.07-1.459-3.551-1.459-1.483 0-2.78.68-3.824 1.82-1.056 1.158-1.643 2.589-1.643 4.261zM241.011 17.223c3.597 0 6.152-1.891 6.152-5.085 0-3.502-2.816-4.379-5.324-5.136-2.581-.781-2.981-1.302-2.981-2.059 0-.663.592-1.253 1.774-1.253 1.513 0 2.295.735 2.862 1.917l3.195-1.87C245.482 1.3 243.352 0 240.632 0c-2.862 0-5.56 1.845-5.56 5.04 0 3.169 2.413 4.353 4.875 5.038 2.484.686 3.43 1.089 3.43 2.106 0 .639-.45 1.349-2.248 1.349-1.871 0-2.887-.924-3.48-2.295l-3.265 1.892c.924 2.437 3.147 4.093 6.627 4.093zM313.065 10.86c0-1.61-1.168-2.706-2.824-2.706s-2.824 1.096-2.824 2.706c0 1.612 1.168 2.709 2.824 2.709s2.824-1.1 2.824-2.71zm3.408-5.602v11.088c0 3.92-3.057 5.58-6.161 5.58-2.426 0-4.458-.911-5.533-2.825l2.989-1.727c.444.817 1.122 1.47 2.66 1.47 1.634 0 2.637-.84 2.637-2.498V15.27c-.77.957-1.892 1.516-3.408 1.516-3.315 0-5.741-2.706-5.741-5.927 0-3.222 2.426-5.928 5.741-5.928 1.516 0 2.638.56 3.408 1.516v-1.19h3.408zM239.699 37.002a5.562 5.562 0 0 1 5.563-5.563 5.561 5.561 0 0 1 5.563 5.563h5.793c0-6.273-5.085-11.356-11.356-11.356-6.273 0-11.356 5.086-11.356 11.356h5.793z" fill="#fff"/><path d="M245.261 33.293a3.71 3.71 0 0 0-3.709 3.71h7.416a3.706 3.706 0 0 0-3.707-3.71zM256.619 37.002h-5.793a5.562 5.562 0 0 1-5.563 5.563v5.793c6.271 0 11.356-5.086 11.356-11.356zM241.358 43.253a11.387 11.387 0 0 0-7.222 8.379c-.15.74-.23 1.505-.23 2.29h5.793c0-.555.083-1.092.233-1.597.014-.04.025-.082.039-.123a5.443 5.443 0 0 1 .68-1.388 5.531 5.531 0 0 1 1.075-1.181c.137-.113.279-.22.427-.32.148-.1.302-.193.458-.28a5.58 5.58 0 0 1 .929-.4c.042-.014.083-.028.124-.039a5.566 5.566 0 0 1 1.595-.233v-5.793a11.232 11.232 0 0 0-3.901.685zm2.065 3.496a7.43 7.43 0 0 0-5.333 5.332h-2.169a9.542 9.542 0 0 1 7.499-7.498v2.166h.003z" fill="#fff"/><path d="M256.621 53.92h-22.715v5.794h22.715V53.92zM295.058 40.703a3.704 3.704 0 1 0 0-7.409 3.704 3.704 0 0 0 0 7.409zM283.708 53.92h5.794a5.56 5.56 0 0 1 5.562-5.562v-5.793c-6.27 0-11.356 5.083-11.356 11.356z" fill="#fff"/><path d="M306.423 53.92h-22.715v5.794h22.715V53.92zM295.064 25.643c-6.272 0-11.356 5.086-11.356 11.356h5.794a5.561 5.561 0 0 1 5.562-5.563 5.562 5.562 0 0 1 4.892 8.212 5.512 5.512 0 0 1-1.355 1.64c-.137.112-.279.218-.427.32a7.038 7.038 0 0 1-.458.28 5.532 5.532 0 0 1-2.649.672v5.793a11.37 11.37 0 0 0 3.904-.689 11.359 11.359 0 0 0 5.807-4.778 11.106 11.106 0 0 0 1.133-2.515 11.428 11.428 0 0 0 .51-3.377c.002-6.265-5.083-11.351-11.357-11.351zm1.84 20.697v-2.169a7.43 7.43 0 0 0 5.333-5.332h2.169a9.55 9.55 0 0 1-7.502 7.501zM281.422 41.995l-4.669 7.65h-2.5l7.169-11.746v4.096zm-11.046-5.04h-2.5l-7.746 12.69h2.501l7.745-12.69zm-4.707 0h-2.501l-4.461 7.31v4.096l6.962-11.405zm6.914 0-7.745 12.69h2.5l7.745-12.69h-2.5zm4.708 0-7.746 12.69h2.501l7.745-12.69h-2.5zm-16.33 0h-2.254v3.69l2.254-3.69zm17.999 12.69h2.46v-4.031l-2.46 4.03zM264.501 36.955a5.561 5.561 0 0 1 5.563-5.563 5.561 5.561 0 0 1 5.562 5.563h5.794c0-6.273-5.086-11.356-11.356-11.356-6.273 0-11.357 5.086-11.357 11.356h5.794z" fill="#fff"/><path d="M275.626 49.644a5.56 5.56 0 0 1-5.562 5.563 5.561 5.561 0 0 1-5.563-5.563h-5.794c0 6.273 5.087 11.356 11.357 11.356 6.272 0 11.356-5.086 11.356-11.356h-5.794zM321.894 44.081l8.631-11.356h-7.186l-8.576 11.356h7.131zM330.524 26.929h-22.715v5.793h22.715v-5.793z" fill="#fff"/><path d="M319.168 38.288v5.793a5.562 5.562 0 0 1 5.563 5.563 5.562 5.562 0 0 1-9.497 3.934 5.54 5.54 0 0 1-1.632-3.934h-5.793c0 .784.079 1.55.23 2.29a11.35 11.35 0 0 0 5.511 7.577 11.24 11.24 0 0 0 5.615 1.486c6.273 0 11.356-5.086 11.356-11.356.006-6.27-5.08-11.353-11.353-11.353zm-1.84 20.694a9.545 9.545 0 0 1-7.498-7.498h2.168a7.432 7.432 0 0 0 5.333 5.332v2.166h-.003z" fill="#fff"/></svg>